# xmcd CD database file
#
# Track frame offsets:
#	150
#	12972
#	33225
#	54347
#	70290
#	81807
#	99210
#	110705
#	126847
#	139205
#	153517
#	165597
#	178962
#
# Disc length: 2651 seconds
#
# Revision: 4
# Processed by: cddbd v1.5.1PL2 Copyright (c) Steve Scherf et al.
# Submitted via: CDex 1.51
#
DISCID=aa0a590d
DTITLE=Liberated Wailing Wall - Messianic Joy
DYEAR=1998
DGENRE=Messianic
TTITLE0=Blessed Be The Lord
TTITLE1=Vineyard Song
TTITLE2=David's Hope
TTITLE3=Behold, I Come
TTITLE4=Great And Wonderful
TTITLE5=Hineni
TTITLE6=O Come
TTITLE7=For God So Loved
TTITLE8=Tov Lachasot BaShem
TTITLE9=Psalm 23
TTITLE10=He Is Not Here
TTITLE11=Behold!
TTITLE12=Morning Star
EXTD=YEAR: 1998
EXTT0=
EXTT1=
EXTT2=
EXTT3=
EXTT4=
EXTT5=
EXTT6=
EXTT7=
EXTT8=
EXTT9=
EXTT10=
EXTT11=
EXTT12=
PLAYORDER=
